# Blender v2.76 (sub 0) OBJ File: 'casa.blend'
# www.blender.org
mtllib casa.mtl
o Cube
v 4.999998 0.035160 -4.999997
v 4.999998 0.035160 4.999998
v -4.999998 0.035160 4.999997
v -4.999996 0.035160 -5.000000
v 5.000000 5.035160 -4.999995
v 4.999994 5.035160 5.000000
v -5.000000 5.035160 4.999996
v -4.999997 5.035160 -4.999998
v 4.999998 1.051572 -4.999997
v 4.999997 1.051572 4.999998
v -4.999998 1.051572 4.999997
v -4.999996 1.051572 -5.000000
v 4.999999 2.383469 -4.999996
v 4.999996 2.383469 4.999999
v -4.999999 2.383469 4.999997
v -4.999997 2.383469 -4.999999
v 5.000000 3.433442 -4.999996
v 4.999996 3.433442 5.000000
v -4.999999 3.433442 4.999996
v -4.999997 3.433442 -4.999998
v 4.999998 0.035160 1.163442
v 4.999998 0.035160 4.496774
v -4.999998 0.035160 4.496773
v -4.999997 0.035160 1.163441
v 4.999997 5.035160 1.163445
v 4.999995 5.035160 4.496777
v -5.000000 5.035160 4.496772
v -4.999999 5.035160 1.163441
v -4.999998 1.051572 4.496773
v -4.999998 1.051572 1.163441
v 4.999997 1.051572 1.163443
v 4.999997 1.051572 4.496775
v -4.999999 2.383469 4.496773
v -4.999998 2.383469 1.163441
v 4.999997 2.383469 1.163444
v 4.999996 2.383469 4.496775
v -4.999999 3.433442 4.496773
v -4.999998 3.433442 1.163441
v 4.999997 3.433442 1.163445
v 4.999996 3.433442 4.496777
v -4.999996 0.035160 -3.243059
v -4.999998 5.035160 -3.243058
v -4.999997 1.051572 -3.243059
v -4.999997 2.383469 -3.243059
v -4.999997 3.433442 -3.243058
v 4.999998 0.035160 -3.243057
v 4.999999 5.035160 -3.243054
v 4.999998 1.051572 -3.243057
v 4.999998 2.383469 -3.243056
v 4.999999 3.433442 -3.243055
v 4.999998 0.035160 -1.623073
v 4.999998 5.035160 -1.623070
v 4.999998 1.051572 -1.623072
v 4.999998 2.383469 -1.623071
v 4.999998 3.433442 -1.623070
v -4.999997 0.035160 -1.623074
v -4.999998 5.035160 -1.623073
v -4.999997 1.051572 -1.623074
v -4.999997 2.383469 -1.623074
v -4.999998 3.433442 -1.623074
v 5.000000 3.522943 -4.999996
v 4.999996 3.522943 5.000000
v -4.999999 3.522943 4.999996
v -4.999997 3.522943 -4.999998
v -4.999999 3.522943 4.496773
v -4.999998 3.522943 1.163441
v 4.999997 3.522943 1.163445
v 4.999996 3.522943 4.496777
v 4.999999 3.522943 -3.243055
v -4.999997 3.522943 -3.243058
v -4.999998 3.522943 -1.623074
v 4.999998 3.522943 -1.623070
v 4.999999 2.321997 -4.999996
v 4.999996 2.321997 4.999999
v -4.999999 2.321997 4.999997
v -4.999997 2.321997 -4.999999
v 4.999997 2.321997 1.163444
v 4.999996 2.321997 4.496775
v -4.999999 2.321997 4.496773
v -4.999998 2.321997 1.163441
v 4.999998 2.321997 -3.243056
v -4.999997 2.321997 -3.243059
v -4.999997 2.321997 -1.623074
v 4.999998 2.321997 -1.623071
v 4.999998 0.035160 4.393583
v -4.999998 0.035160 4.393582
v 4.999995 5.035160 4.393586
v -5.000000 5.035160 4.393581
v -4.999998 1.051572 4.393582
v 4.999997 1.051572 4.393584
v -4.999999 2.383469 4.393582
v 4.999996 2.383469 4.393584
v -4.999999 3.433442 4.393581
v 4.999996 3.433442 4.393586
v 4.999996 3.522943 4.393586
v -4.999999 3.522943 4.393581
v -4.999999 2.321997 4.393582
v 4.999996 2.321997 4.393584
v -4.999997 0.035160 1.270426
v -4.999999 5.035160 1.270427
v -4.999998 1.051572 1.270426
v -4.999998 2.383469 1.270427
v -4.999998 3.433442 1.270427
v -4.999998 3.522943 1.270427
v -4.999998 2.321997 1.270427
v 4.999998 0.035160 1.270428
v 4.999997 5.035160 1.270431
v 4.999997 1.051572 1.270429
v 4.999997 2.383469 1.270429
v 4.999997 3.433442 1.270430
v 4.999997 3.522943 1.270430
v 4.999997 2.321997 1.270429
v -4.999997 0.035160 -1.784193
v -4.999998 5.035160 -1.784192
v -4.999997 1.051572 -1.784193
v -4.999997 2.383469 -1.784193
v -4.999998 3.433442 -1.784193
v 4.999998 0.035160 -1.784191
v 4.999998 5.035160 -1.784189
v 4.999998 1.051572 -1.784191
v 4.999998 2.383469 -1.784190
v 4.999998 3.433442 -1.784189
v 4.999998 3.522943 -1.784189
v -4.999998 3.522943 -1.784193
v 4.999998 2.321997 -1.784190
v -4.999997 2.321997 -1.784193
v -4.999996 0.035160 -3.081317
v -4.999998 5.035160 -3.081316
v -4.999997 1.051572 -3.081317
v -4.999997 2.383469 -3.081317
v -4.999997 3.433442 -3.081316
v -4.999997 3.522943 -3.081316
v -4.999997 2.321997 -3.081317
v 4.999998 0.035160 -3.081316
v 4.999999 5.035160 -3.081312
v 4.999998 1.051572 -3.081315
v 4.999998 2.383469 -3.081314
v 4.999999 3.433442 -3.081313
v 4.999999 3.522943 -3.081313
v 4.999998 2.321997 -3.081314
v 5.055870 2.383469 1.163444
v 5.055869 2.383469 4.496775
v 5.055871 3.433442 1.163445
v 5.055869 3.433442 4.496777
v 5.055871 2.383469 -3.243056
v 5.055871 3.433442 -3.243055
v 5.055871 2.383469 -1.623071
v 5.055871 3.433442 -1.623070
v 5.055871 3.522943 1.163445
v 5.055869 3.522943 4.496777
v 5.055871 3.522943 -3.243055
v 5.055871 3.522943 -1.623070
v 5.055870 2.321997 1.163444
v 5.055869 2.321997 4.496775
v 5.055871 2.321997 -3.243056
v 5.055871 2.321997 -1.623071
v 5.055869 2.383469 4.393584
v 5.055869 3.433442 4.393586
v 5.055869 3.522943 4.393586
v 5.055869 2.321997 4.393584
v 5.055870 2.383469 1.270429
v 5.055871 3.433442 1.270430
v 5.055871 3.522943 1.270430
v 5.055870 2.321997 1.270429
v 5.055871 2.383469 -1.784190
v 5.055871 3.433442 -1.784189
v 5.055871 3.522943 -1.784189
v 5.055871 2.321997 -1.784190
v 5.055871 2.383469 -3.081314
v 5.055871 3.433442 -3.081313
v 5.055871 3.522943 -3.081313
v 5.055871 2.321997 -3.081314
v -5.113085 2.383469 4.496773
v -5.113084 2.383469 1.163441
v -5.113085 3.433442 4.496773
v -5.113084 3.433442 1.163441
v -5.113083 2.383469 -3.243059
v -5.113084 3.433442 -3.243058
v -5.113084 2.383469 -1.623074
v -5.113084 3.433442 -1.623074
v -5.113085 3.522943 4.496773
v -5.113084 3.522943 1.163441
v -5.113084 3.522943 -1.623074
v -5.113085 2.321997 4.496773
v -5.113084 2.321997 1.163441
v -5.113083 2.321997 -3.243059
v -5.113084 2.321997 -1.623074
v -5.113085 2.383469 4.393582
v -5.113085 3.433442 4.393581
v -5.113085 3.522943 4.393581
v -5.113085 2.321997 4.393582
v -5.113084 2.383469 1.270427
v -5.113084 3.433442 1.270427
v -5.113084 3.522943 1.270427
v -5.113084 2.321997 1.270427
v -5.113084 2.383469 -1.784193
v -5.113084 3.433442 -1.784193
v -5.113084 3.522943 -1.784193
v -5.113084 2.321997 -1.784193
v -5.113083 2.383469 -3.081317
v -5.113084 3.433442 -3.081316
v -5.113084 3.522943 -3.081316
v -5.113083 2.321997 -3.081317
v 5.099481 5.135925 4.583082
v 5.099481 5.135925 5.096318
v 5.099487 5.135925 -5.102650
v -5.099483 5.135925 -5.102653
v -5.099486 5.135925 5.096313
v -5.099484 5.135925 -3.310755
v 5.099485 5.135925 -1.658533
v 5.099483 5.135925 1.183426
v 5.099481 5.135925 4.477838
v -5.099486 5.135925 4.583077
v -5.099485 5.135925 1.292536
v -5.099485 5.135925 1.183421
v -5.099484 5.135925 -3.145795
v 5.099485 5.135925 -3.310751
v 5.099485 5.135925 -1.822858
v -5.099485 5.135925 -1.658537
v 5.099483 5.135925 1.292540
v -5.099486 5.135925 4.477833
v -5.099485 5.135925 -1.822862
v 5.099485 5.135925 -3.145791
v 5.099481 5.323061 4.583082
v 5.099481 5.323061 5.096318
v 5.099487 5.323061 -5.102650
v -5.099483 5.323061 -5.102653
v -5.099486 5.323061 5.096313
v -5.099484 5.323061 -3.310755
v 5.099485 5.323061 -1.658533
v 5.099483 5.323061 1.183426
v 5.099481 5.323061 4.477838
v -5.099486 5.323061 4.583077
v -5.099485 5.323061 1.292536
v -5.099485 5.323061 1.183421
v -5.099484 5.323061 -3.145795
v 5.099485 5.323061 -3.310751
v 5.099485 5.323061 -1.822858
v -5.099485 5.323061 -1.658537
v 5.099483 5.323061 1.292540
v -5.099486 5.323061 4.477833
v -5.099485 5.323061 -1.822862
v 5.099485 5.323061 -3.145791
v 4.832376 5.323061 4.351367
v 4.832376 5.323061 4.837721
v 4.832382 5.323061 -4.827037
v -4.832379 5.323061 -4.827040
v -4.832381 5.323061 4.837717
v -4.832380 5.323061 -3.129000
v 4.832380 5.323061 -1.563320
v 4.832378 5.323061 1.129781
v 4.832376 5.323061 4.251636
v -4.832381 5.323061 4.351363
v -4.832381 5.323061 1.233176
v -4.832381 5.323061 1.129777
v -4.832380 5.323061 -2.972680
v 4.832380 5.323061 -3.128996
v 4.832380 5.323061 -1.719037
v -4.832380 5.323061 -1.563323
v 4.832378 5.323061 1.233180
v -4.832381 5.323061 4.251632
v -4.832380 5.323061 -1.719041
v 4.832380 5.323061 -2.972677
v 4.832376 5.236691 4.351367
v 4.832376 5.236691 4.837721
v 4.832382 5.236691 -4.827037
v -4.832379 5.236691 -4.827040
v -4.832381 5.236691 4.837717
v -4.832380 5.236691 -3.129000
v 4.832380 5.236691 -1.563320
v 4.832378 5.236691 1.129781
v 4.832376 5.236691 4.251636
v -4.832381 5.236691 4.351363
v -4.832381 5.236691 1.233176
v -4.832381 5.236691 1.129777
v -4.832380 5.236691 -2.972680
v 4.832380 5.236691 -3.128996
v 4.832380 5.236691 -1.719037
v -4.832380 5.236691 -1.563323
v 4.832378 5.236691 1.233180
v -4.832381 5.236691 4.251632
v -4.832380 5.236691 -1.719041
v 4.832380 5.236691 -2.972677
v 4.999997 0.035160 -1.101688
v 4.999997 0.035160 0.640370
v 4.999997 5.035160 -1.101683
v 4.999997 5.035160 0.640375
v 4.999997 1.051572 -1.101687
v 4.999997 1.051572 0.640371
v 4.999997 2.383469 -1.101686
v 4.999997 2.383469 0.640372
v 4.999997 3.433442 -1.101684
v 4.999997 3.433442 0.640374
v -4.999997 0.035160 0.640366
v -4.999996 0.035160 -1.101691
v -4.999998 5.035160 0.640367
v -4.999998 5.035160 -1.101690
v -4.999997 1.051572 0.640366
v -4.999997 1.051572 -1.101691
v -4.999997 2.383469 0.640367
v -4.999997 2.383469 -1.101691
v -4.999998 3.433442 0.640367
v -4.999997 3.433442 -1.101690
v -4.999998 3.522943 0.640367
v -4.999997 3.522943 -1.101690
v 4.999997 3.522943 -1.101684
v 4.999997 3.522943 0.640374
v -4.999997 2.321997 0.640367
v -4.999997 2.321997 -1.101691
v 4.999997 2.321997 -1.101686
v 4.999997 2.321997 0.640372
v 5.099483 5.135925 -1.133533
v 5.099483 5.135925 0.643187
v -5.099485 5.135925 0.643179
v -5.099484 5.135925 -1.133541
v 5.099483 5.323061 -1.133533
v 5.099483 5.323061 0.643187
v -5.099485 5.323061 0.643179
v -5.099484 5.323061 -1.133541
v 4.832379 5.323061 -1.048020
v 4.832378 5.323061 0.635637
v -4.832380 5.323061 0.635630
v -4.832380 5.323061 -1.048027
v 4.832379 5.236691 -1.048020
v 4.832378 5.236691 0.635637
v -4.832380 5.236691 0.635630
v -4.832380 5.236691 -1.048027
v -4.860499 0.035160 0.640366
v -4.860499 0.035160 -1.101691
v -4.860499 1.051572 0.640366
v -4.860499 1.051572 -1.101691
v -4.860500 2.321997 0.640367
v -4.860500 2.321997 -1.101691
vn 0.000000 0.000000 -1.000000
vn -1.000000 0.000000 -0.000000
vn -0.000000 -0.000000 1.000000
vn 1.000000 0.000000 0.000000
vn 0.000000 -0.713600 -0.700500
vn -0.000000 -0.691000 0.722900
vn 0.000000 1.000000 0.000000
vn 0.000000 -1.000000 0.000000
vn -0.711600 -0.702600 0.000000
vn 0.711600 -0.702600 0.000000
usemtl base_stone
s off
f 9//1 1//1 4//1 12//1
f 41//2 43//2 12//2 4//2
f 2//3 10//3 11//3 3//3
f 22//4 32//4 10//4 2//4
f 285//4 289//4 31//4 21//4
f 85//4 90//4 32//4 22//4
f 3//2 11//2 29//2 23//2
f 99//2 101//2 30//2 24//2
f 1//4 9//4 48//4 46//4
f 127//2 129//2 43//2 41//2
f 295//2 299//2 58//2 56//2
f 118//4 120//4 53//4 51//4
f 23//2 29//2 89//2 86//2
f 106//4 108//4 90//4 85//4
f 21//4 31//4 108//4 106//4
f 86//2 89//2 101//2 99//2
f 134//4 136//4 120//4 118//4
f 56//2 58//2 115//2 113//2
f 46//4 48//4 136//4 134//4
f 113//2 115//2 129//2 127//2
f 299//3 295//3 329//3 331//3
f 24//2 30//2 298//2 294//2
f 51//4 53//4 288//4 284//4
f 284//4 288//4 289//4 285//4
f 328//2 330//2 331//2 329//2
f 294//1 298//1 330//1 328//1
usemtl Wood
f 62//3 6//3 7//3 63//3
f 73//1 9//1 12//1 76//1
f 17//1 13//1 16//1 20//1
f 74//3 14//3 15//3 75//3
f 61//1 17//1 20//1 64//1
f 14//3 18//3 19//3 15//3
f 5//1 61//1 64//1 8//1
f 18//3 62//3 63//3 19//3
f 10//3 74//3 75//3 11//3
f 13//1 73//1 76//1 16//1
f 5//5 8//5 207//5 206//5
f 7//6 6//6 205//6 208//6
f 226//7 227//7 247//7 246//7
f 206//1 207//1 227//1 226//1
f 208//3 205//3 225//3 228//3
f 228//7 225//7 245//7 248//7
f 246//3 247//3 267//3 266//3
f 248//1 245//1 265//1 268//1
usemtl pintura
f 22//8 2//8 3//8 23//8
f 68//4 26//4 6//4 62//4
f 70//2 42//2 8//2 64//2
f 82//2 44//2 16//2 76//2
f 78//4 36//4 14//4 74//4
f 44//2 45//2 20//2 16//2
f 36//4 40//4 18//4 14//4
f 291//4 293//4 39//4 35//4
f 39//1 67//1 149//1 143//1
f 15//2 19//2 37//2 33//2
f 45//1 44//1 177//1 178//1
f 311//4 291//4 35//4 77//4
f 92//1 94//1 158//1 157//1
f 75//2 15//2 33//2 79//2
f 38//1 34//1 174//1 176//1
f 63//2 7//2 27//2 65//2
f 104//2 100//2 28//2 66//2
f 307//4 287//4 25//4 67//4
f 95//4 87//4 26//4 68//4
f 285//8 21//8 24//8 294//8
f 85//8 22//8 23//8 86//8
f 1//8 46//8 41//8 4//8
f 61//4 5//4 47//4 69//4
f 73//4 13//4 49//4 81//4
f 13//4 17//4 50//4 49//4
f 44//1 82//1 186//1 177//1
f 91//7 102//7 192//7 188//7
f 132//2 128//2 42//2 70//2
f 305//2 297//2 57//2 71//2
f 309//2 301//2 59//2 83//2
f 301//2 303//2 60//2 59//2
f 118//8 51//8 56//8 113//8
f 123//4 119//4 52//4 72//4
f 109//7 92//7 157//7 161//7
f 67//7 111//7 163//7 149//7
f 54//3 84//3 156//3 147//3
f 303//2 305//2 71//2 60//2
f 131//2 132//2 70//2 45//2
f 17//4 61//4 69//4 50//4
f 94//8 110//8 162//8 158//8
f 293//4 307//4 67//4 39//4
f 65//7 96//7 190//7 181//7
f 19//2 63//2 65//2 37//2
f 45//2 70//2 64//2 20//2
f 40//4 68//4 62//4 18//4
f 120//4 125//4 84//4 53//4
f 299//2 309//2 83//2 58//2
f 129//2 133//2 82//2 43//2
f 9//4 73//4 81//4 48//4
f 101//2 105//2 80//2 30//2
f 11//2 75//2 79//2 29//2
f 90//4 98//4 78//4 32//4
f 289//4 311//4 77//4 31//4
f 32//4 78//4 74//4 10//4
f 43//2 82//2 76//2 12//2
f 108//4 112//4 98//4 90//4
f 29//2 79//2 97//2 89//2
f 59//3 60//3 180//3 179//3
f 110//3 109//3 161//3 162//3
f 106//8 85//8 86//8 99//8
f 111//4 107//4 87//4 95//4
f 65//2 27//2 88//2 96//2
f 96//7 104//7 194//7 190//7
f 137//7 121//7 165//7 169//7
f 102//3 103//3 193//3 192//3
f 109//4 110//4 94//4 92//4
f 140//8 81//8 155//8 172//8
f 139//7 123//7 167//7 171//7
f 67//4 25//4 107//4 111//4
f 21//8 106//8 99//8 24//8
f 77//1 35//1 141//1 153//1
f 31//4 77//4 112//4 108//4
f 89//2 97//2 105//2 101//2
f 131//8 117//8 197//8 201//8
f 96//2 88//2 100//2 104//2
f 133//8 126//8 199//8 203//8
f 91//2 93//2 103//2 102//2
f 58//2 83//2 126//2 115//2
f 136//4 140//4 125//4 120//4
f 79//3 33//3 173//3 184//3
f 35//1 39//1 143//1 141//1
f 137//4 138//4 122//4 121//4
f 98//8 112//8 164//8 160//8
f 139//4 135//4 119//4 123//4
f 134//8 118//8 113//8 127//8
f 71//2 57//2 114//2 124//2
f 131//7 45//7 178//7 201//7
f 66//1 38//1 176//1 182//1
f 46//8 134//8 127//8 41//8
f 69//4 47//4 135//4 139//4
f 125//8 140//8 172//8 168//8
f 49//1 50//1 146//1 145//1
f 138//3 137//3 169//3 170//3
f 48//4 81//4 140//4 136//4
f 115//2 126//2 133//2 129//2
f 33//3 37//3 175//3 173//3
f 124//2 114//2 128//2 132//2
f 93//1 91//1 188//1 189//1
f 116//2 117//2 131//2 130//2
f 157//4 158//4 144//4 142//4
f 160//4 157//4 142//4 154//4
f 168//4 165//4 147//4 156//4
f 165//4 166//4 148//4 147//4
f 166//4 167//4 152//4 148//4
f 158//4 159//4 150//4 144//4
f 162//4 163//4 159//4 158//4
f 164//4 161//4 157//4 160//4
f 141//4 143//4 162//4 161//4
f 153//4 141//4 161//4 164//4
f 143//4 149//4 163//4 162//4
f 170//4 171//4 167//4 166//4
f 172//4 169//4 165//4 168//4
f 155//4 145//4 169//4 172//4
f 145//4 146//4 170//4 169//4
f 146//4 151//4 171//4 170//4
f 78//8 98//8 160//8 154//8
f 40//3 36//3 142//3 144//3
f 72//3 55//3 148//3 152//3
f 36//3 78//3 154//3 142//3
f 50//1 69//1 151//1 146//1
f 95//7 68//7 150//7 159//7
f 122//8 138//8 170//8 166//8
f 111//7 95//7 159//7 163//7
f 84//8 125//8 168//8 156//8
f 69//7 139//7 171//7 151//7
f 121//1 122//1 166//1 165//1
f 112//8 77//8 153//8 164//8
f 123//7 72//7 152//7 167//7
f 68//3 40//3 144//3 150//3
f 55//3 54//3 147//3 148//3
f 81//1 49//1 145//1 155//1
f 192//2 193//2 176//2 174//2
f 195//2 192//2 174//2 185//2
f 200//2 201//2 178//2 177//2
f 203//2 200//2 177//2 186//2
f 193//2 194//2 182//2 176//2
f 175//2 181//2 190//2 189//2
f 184//2 173//2 188//2 191//2
f 173//2 175//2 189//2 188//2
f 189//2 190//2 194//2 193//2
f 191//2 188//2 192//2 195//2
f 180//2 183//2 198//2 197//2
f 187//2 179//2 196//2 199//2
f 179//2 180//2 197//2 196//2
f 197//2 198//2 202//2 201//2
f 199//2 196//2 200//2 203//2
f 34//1 80//1 185//1 174//1
f 126//8 83//8 187//8 199//8
f 37//3 65//3 181//3 175//3
f 104//7 66//7 182//7 194//7
f 80//8 105//8 195//8 185//8
f 130//3 131//3 201//3 200//3
f 124//7 132//7 202//7 198//7
f 71//7 124//7 198//7 183//7
f 105//8 97//8 191//8 195//8
f 97//8 79//8 184//8 191//8
f 82//8 133//8 203//8 186//8
f 116//7 130//7 200//7 196//7
f 103//8 93//8 189//8 193//8
f 132//1 131//1 201//1 202//1
f 60//3 71//3 183//3 180//3
f 83//3 59//3 179//3 187//3
f 117//1 116//1 196//1 197//1
f 88//9 27//9 213//9 221//9
f 312//4 210//4 230//4 316//4
f 114//9 57//9 219//9 222//9
f 6//10 26//10 204//10 205//10
f 42//9 128//9 216//9 209//9
f 107//10 25//10 211//10 220//10
f 296//9 28//9 215//9 314//9
f 100//9 88//9 221//9 214//9
f 286//10 52//10 210//10 312//10
f 8//9 42//9 209//9 207//9
f 26//10 87//10 212//10 204//10
f 135//10 47//10 217//10 223//10
f 27//9 7//9 208//9 213//9
f 128//9 114//9 222//9 216//9
f 52//10 119//10 218//10 210//10
f 119//10 135//10 223//10 218//10
f 28//9 100//9 214//9 215//9
f 47//10 5//10 206//10 217//10
f 87//10 107//10 220//10 212//10
f 223//4 217//4 237//4 243//4
f 212//4 220//4 240//4 232//4
f 204//4 212//4 232//4 224//4
f 221//2 213//2 233//2 241//2
f 213//2 208//2 228//2 233//2
f 214//2 221//2 241//2 234//2
f 215//2 214//2 234//2 235//2
f 205//4 204//4 224//4 225//4
f 220//4 211//4 231//4 240//4
f 209//2 216//2 236//2 229//2
f 222//2 219//2 239//2 242//2
f 217//4 206//4 226//4 237//4
f 218//4 223//4 243//4 238//4
f 210//4 218//4 238//4 230//4
f 207//2 209//2 229//2 227//2
f 216//2 222//2 242//2 236//2
f 314//2 215//2 235//2 318//2
f 261//4 253//4 273//4 281//4
f 242//7 239//7 259//7 262//7
f 237//7 226//7 246//7 257//7
f 238//7 243//7 263//7 258//7
f 230//7 238//7 258//7 250//7
f 227//7 229//7 249//7 247//7
f 236//7 242//7 262//7 256//7
f 318//7 235//7 255//7 322//7
f 316//7 230//7 250//7 320//7
f 243//7 237//7 257//7 263//7
f 232//7 240//7 260//7 252//7
f 224//7 232//7 252//7 244//7
f 241//7 233//7 253//7 261//7
f 233//7 228//7 248//7 253//7
f 234//7 241//7 261//7 254//7
f 235//7 234//7 254//7 255//7
f 225//7 224//7 244//7 245//7
f 240//7 231//7 251//7 260//7
f 229//7 236//7 256//7 249//7
f 327//7 324//7 270//7 278//7 283//7 277//7 266//7 267//7 269//7 276//7 282//7 279//7
f 253//4 248//4 268//4 273//4
f 254//4 261//4 281//4 274//4
f 255//4 254//4 274//4 275//4
f 245//2 244//2 264//2 265//2
f 260//2 251//2 271//2 280//2
f 249//4 256//4 276//4 269//4
f 262//4 259//4 279//4 282//4
f 257//2 246//2 266//2 277//2
f 258//2 263//2 283//2 278//2
f 250//2 258//2 278//2 270//2
f 247//4 249//4 269//4 267//4
f 256//4 262//4 282//4 276//4
f 322//4 255//4 275//4 326//4
f 320//2 250//2 270//2 324//2
f 263//2 257//2 277//2 283//2
f 252//2 260//2 280//2 272//2
f 244//2 252//2 272//2 264//2
f 251//2 321//2 325//2 271//2
f 321//2 320//2 324//2 325//2
f 259//4 323//4 327//4 279//4
f 323//4 322//4 326//4 327//4
f 273//7 268//7 265//7 264//7 272//7 280//7 271//7 325//7 326//7 275//7 274//7 281//7
f 326//7 325//7 324//7 327//7
f 231//7 317//7 321//7 251//7
f 317//7 316//7 320//7 321//7
f 239//7 319//7 323//7 259//7
f 319//7 318//7 322//7 323//7
f 219//2 315//2 319//2 239//2
f 315//2 314//2 318//2 319//2
f 25//10 287//10 313//10 211//10
f 287//10 286//10 312//10 313//10
f 57//9 297//9 315//9 219//9
f 297//9 296//9 314//9 315//9
f 211//4 313//4 317//4 231//4
f 313//4 312//4 316//4 317//4
f 53//4 84//4 310//4 288//4
f 288//4 310//4 311//4 289//4
f 30//2 80//2 308//2 298//2
f 55//4 72//4 306//4 292//4
f 292//4 306//4 307//4 293//4
f 38//2 66//2 304//2 302//2
f 302//2 304//2 305//2 303//2
f 34//2 38//2 302//2 300//2
f 300//2 302//2 303//2 301//2
f 80//2 34//2 300//2 308//2
f 308//2 300//2 301//2 309//2
f 295//7 294//7 328//7 329//7
f 66//2 28//2 296//2 304//2
f 304//2 296//2 297//2 305//2
f 51//8 284//8 295//8 56//8
f 72//4 52//4 286//4 306//4
f 306//4 286//4 287//4 307//4
f 84//4 54//4 290//4 310//4
f 310//4 290//4 291//4 311//4
f 54//4 55//4 292//4 290//4
f 290//4 292//4 293//4 291//4
f 330//2 332//2 333//2 331//2
f 298//1 308//1 332//1 330//1
f 308//8 309//8 333//8 332//8
f 309//3 299//3 331//3 333//3
