# Blender v2.76 (sub 0) OBJ File: 'square_decorative_1.blend'
# www.blender.org
mtllib square_decorative_1.mtl
o Cube_Cube.001
v -6.000000 0.987000 1.860600
v -6.000000 0.987000 -10.139400
v 6.000000 0.987000 -10.139400
v 6.000000 0.987000 1.860600
v -6.000000 10.987000 1.860600
v -6.000000 10.987000 -10.139400
v 6.000000 10.987000 -10.139400
v 6.000000 10.987000 1.860600
v 0.807131 10.987000 -10.139400
v 2.000000 10.987000 -10.139400
v 2.000000 0.987000 -10.139400
v 0.807131 0.987000 -10.139400
v 2.000000 10.987000 1.860600
v 0.807131 10.987000 1.860600
v 0.807131 0.987000 1.860600
v 2.000000 0.987000 1.860600
v -6.000000 3.158329 1.860600
v -6.000000 3.158329 -10.139400
v 6.000000 3.158329 -10.139400
v 6.000000 3.158329 1.860600
v 2.000000 3.158329 1.860600
v 0.807131 3.158329 1.860600
v 0.807131 3.158329 -10.139400
v 2.000000 3.158329 -10.139400
v -6.000000 4.897366 1.860600
v -6.000000 4.897366 -10.139400
v 6.000000 4.897366 -10.139400
v 6.000000 4.897366 1.860600
v 2.000000 4.897366 1.860600
v 0.807131 4.897366 1.860600
v 0.807131 4.897366 -10.139400
v 2.000000 4.897366 -10.139400
v -6.000000 5.741186 1.860600
v -6.000000 5.741186 -10.139400
v 6.000000 5.741186 -10.139400
v 6.000000 5.741186 1.860600
v 2.000000 5.741186 1.860600
v 0.807131 5.741186 1.860600
v 0.807131 5.741186 -10.139400
v 2.000000 5.741186 -10.139400
v 6.000000 4.897366 -1.599307
v 6.000000 5.741186 -1.599307
v 6.000000 4.897366 -3.769754
v 6.000000 5.741186 -3.769739
v -4.223424 5.741186 1.860600
v -4.223427 4.897366 1.860600
v -1.539312 5.741186 1.860600
v -1.539312 4.897366 1.860600
v 0.807131 0.987000 1.476930
v 2.000000 0.987000 1.476930
v 2.000000 3.158329 1.476930
v 0.807131 3.158329 1.476930
v -4.223424 5.741186 1.779600
v -4.223427 4.897366 1.779600
v -1.539312 5.741186 1.779600
v -1.539312 4.897366 1.779600
v 2.000000 4.897366 1.749523
v 0.807131 4.897366 1.749523
v 2.000000 5.741186 1.749523
v 0.807131 5.741186 1.749523
v -3.827554 9.272712 1.469177
v -3.827554 9.272712 1.860599
v -1.232442 9.272713 1.860599
v -1.232443 8.054015 1.860599
v -3.827555 8.054015 1.860600
v -1.232442 9.272713 1.469178
v -1.232443 8.054015 1.469178
v -3.827555 8.054015 1.469178
v 0.807131 10.987000 -6.657788
v 2.000000 10.987000 -6.657790
v 0.807131 10.987000 -3.182370
v 2.000000 10.987000 -3.182372
v 0.807131 12.506065 -6.657788
v 2.000000 12.506065 -6.657790
v 0.807131 12.506065 -3.182370
v 2.000000 12.506065 -3.182372
v 5.838045 4.897366 -1.599307
v 5.838045 5.741186 -1.599307
v 5.838045 4.897366 -3.769754
v 5.838045 5.741186 -3.769739
v 0.807131 4.897366 -9.879066
v 2.000000 4.897366 -9.879066
v 0.807131 5.741186 -9.879066
v 2.000000 5.741186 -9.879066
v -6.000000 4.897366 -5.794555
v -6.000000 5.741186 -5.794558
v -6.000000 4.897366 -2.301736
v -6.000000 5.741186 -2.301735
v -5.664243 4.897366 -5.794555
v -5.664243 5.741186 -5.794558
v -5.664243 4.897366 -2.301736
v -5.664243 5.741186 -2.301735
v -6.168141 0.987000 2.028741
v -6.168141 0.987000 -10.307541
v 6.168141 0.987000 -10.307541
v 6.168141 0.987000 2.028741
v 2.000000 0.987000 -10.377188
v 0.807131 0.987000 -10.377188
v 0.807131 0.987000 2.098387
v 2.000000 0.987000 2.098387
v -6.168141 3.158329 2.028741
v -6.168141 3.158329 -10.307541
v 6.168141 3.158329 -10.307541
v 6.168141 3.158329 2.028741
v 2.000000 3.158329 2.098387
v 0.807131 3.158329 2.098387
v 0.807131 3.158329 -10.377188
v 2.000000 3.158329 -10.377188
v -5.682179 10.987000 -10.139400
v -5.682179 10.987000 1.860600
v -5.682179 10.987000 1.457342
v -6.000000 10.987000 1.457344
v 0.807131 10.987000 1.457344
v 6.000000 10.987000 1.457342
v 2.000000 10.987000 1.457343
v 5.575814 10.987000 1.860600
v 5.575814 10.987000 1.457342
v 5.575812 10.987000 -10.139400
v 5.575812 10.987000 -9.768573
v -6.000000 10.987000 -9.768574
v 2.000000 10.987000 -9.768573
v -5.682179 10.987000 -9.768573
v 6.000000 10.987000 -9.768573
v 0.807131 10.987000 -9.768573
v -6.000000 12.071120 1.860600
v -6.000000 12.071120 -10.139400
v 6.000000 12.071120 -10.139400
v 6.000000 12.071120 1.860600
v 0.807131 12.071120 -10.139400
v 2.000000 12.071120 -10.139400
v 2.000000 12.071120 1.860600
v 0.807131 12.071120 1.860600
v -5.682179 12.071120 -10.139400
v -5.682179 12.071120 1.860600
v -5.682179 12.071120 1.457342
v -6.000000 12.071120 1.457344
v 0.807131 12.071120 1.457344
v 6.000000 12.071120 1.457342
v 2.000000 12.071120 1.457343
v 5.575814 12.071120 1.860600
v 5.575814 12.071120 1.457342
v 5.575812 12.071120 -10.139400
v 5.575812 12.071120 -9.768573
v -6.000000 12.071120 -9.768574
v 2.000000 12.071120 -9.768573
v -5.682179 12.071120 -9.768573
v 6.000000 12.071120 -9.768573
v 0.807131 12.071120 -9.768573
vt -2.283195 2.316355
vt -2.283195 1.238421
vt -2.265487 1.211795
vt -2.258153 2.316355
vt 0.008715 0.015348
vt 0.008715 0.789901
vt 0.000000 0.800753
vt 0.000000 0.004495
vt 0.630721 0.789901
vt 0.630721 0.015348
vt 0.639436 0.004495
vt 0.639436 0.800753
vt 0.277881 0.015348
vt 0.216051 0.015348
vt 0.216051 0.000000
vt 0.277881 0.000000
vt -3.546943 2.505250
vt -2.283195 2.505251
vt -2.283195 3.138665
vt -3.546943 3.138665
vt -0.615518 2.594663
vt -1.879266 2.594663
vt -1.879267 1.516729
vt -0.615519 1.516729
vt -3.546943 2.316355
vt 2.168521 -0.380060
vt 2.397189 -0.380060
vt 2.397189 -0.342406
vt 2.168521 -0.342406
vt -2.258153 2.505251
vt -2.265487 3.165291
vt -3.546943 1.238421
vt -3.564650 1.211795
vt 2.168521 -0.440816
vt 2.397189 -0.440816
vt 2.625856 -0.380060
vt 2.625856 -0.440815
vt 1.298615 1.008355
vt -0.000547 1.008355
vt -0.000547 0.664517
vt 1.298616 0.664517
vt 1.441438 1.004239
vt 1.002466 1.004239
vt 1.002466 0.660401
vt 1.441438 0.660401
vt 1.462294 0.002590
vt 0.163131 0.002590
vt 0.163131 -0.341248
vt 1.462294 -0.341248
vt 0.960930 1.003733
vt 0.002226 1.003733
vt 0.002226 0.557509
vt 0.960930 0.557509
vt 2.607493 0.001432
vt 2.168521 0.001432
vt 2.607493 -0.342405
vt 2.301625 1.004239
vt 1.567061 1.004239
vt 1.567061 0.660401
vt 2.301625 0.660401
vt 0.216051 0.789901
vt 0.216051 0.805249
vt 2.625856 -0.342405
vt -3.564650 3.165291
vt -3.571985 2.505250
vt -3.571985 2.316355
vt 0.277881 0.789901
vt 0.277881 0.805249
vt -1.915970 -2.148786
vt -2.325782 -2.148786
vt -2.325782 -2.238114
vt -1.915971 -2.238114
vt 0.567261 0.326700
vt 0.666667 0.326700
vt 0.666667 1.000000
vt 0.567261 1.000000
vt 0.000000 0.326700
vt 0.000000 1.000000
vt 0.333333 0.326700
vt 0.432739 0.326700
vt 0.432739 1.000000
vt 0.333333 1.000000
vt 0.628276 0.326700
vt 0.851952 0.326700
vt 1.000000 0.326700
vt 1.000000 0.999999
vt 0.530804 0.326701
vt 0.711674 0.326700
vt 5.621931 4.205074
vt 5.621931 0.586887
vt 5.621931 -2.449310
vt 5.621931 -6.226148
vt 7.226147 -6.226148
vt 7.226149 4.205074
vt 4.843532 -2.449314
vt 4.843528 -6.226146
vt 0.666667 0.000000
vt 1.000000 0.000000
vt 0.711675 0.000001
vt 0.851952 0.000000
vt 0.000000 0.000001
vt 0.333333 0.000000
vt 3.889846 -2.157293
vt 3.480034 -2.157293
vt 3.480034 -2.183156
vt 3.889846 -2.183156
vt 0.567261 0.000000
vt 3.468034 0.459957
vt 3.877847 0.459957
vt 3.877847 0.520571
vt 3.468034 0.520571
vt 0.432739 0.000000
vt 0.973515 1.000000
vt 0.964651 1.000000
vt 0.969098 1.000000
vt 0.033605 1.000000
vt 0.288326 0.000000
vt 0.469195 0.000000
vt 0.035349 1.000000
vt -0.346573 -2.148785
vt -0.636469 -2.148785
vt -0.636469 -2.186493
vt -0.346573 -2.186493
vt 0.530805 0.000001
vt 0.235255 -2.175942
vt -0.054641 -2.175942
vt -0.054641 -2.194803
vt 0.235255 -2.194802
vt 0.628276 0.000000
vt 0.947231 0.025949
vt 1.307666 0.025949
vt 1.307666 0.017505
vt 0.947231 0.017505
vt 2.148089 -2.176152
vt 3.070221 -2.176152
vt 3.070221 -2.157293
vt 2.148089 -2.157293
vt 0.333736 0.066755
vt 0.447048 0.066755
vt 0.447048 0.058311
vt 0.333736 0.058311
vt 3.070221 -2.183156
vt -0.344537 -2.201804
vt -0.054641 -2.201804
vt -0.344537 -2.175942
vt 4.179742 -2.157293
vt 4.179742 -2.183156
vt 0.026485 1.000000
vt 0.181037 0.673208
vt 0.397296 0.673208
vt 0.397296 0.440890
vt 0.610700 0.066755
vt 0.610700 0.025950
vt 0.447048 0.025950
vt 0.959183 0.066755
vt 1.307666 0.066755
vt 0.959183 0.025950
vt -2.744468 -2.148786
vt -2.744467 -2.239920
vt -2.325782 -2.239920
vt 0.181037 0.440890
vt 0.966395 1.000000
vt 0.030902 1.000000
vt 0.362070 0.000000
vt 0.653139 -0.000000
vt 0.371724 0.000000
vt 0.148048 0.000000
vt 2.722373 0.445155
vt 3.468029 0.445155
vt 3.468029 0.482863
vt 2.722373 0.482863
vt 2.722373 0.520571
vt -0.926366 -2.186493
vt -0.926366 -2.148785
vt -1.506158 -2.148786
vt -1.915970 -2.209399
vt -1.506158 -2.209399
vt -1.216262 -2.209399
vt -1.216262 -2.148786
vt -0.926366 -2.209399
vt 4.206258 0.523666
vt 3.916361 0.523666
vt 3.916361 0.445492
vt 4.206258 0.445492
vt 4.843532 4.205074
vt 4.843532 0.586887
vt -1.544502 -1.979478
vt -2.744468 -1.979478
vt -2.744468 -2.057651
vt -1.544502 -2.057651
vt -0.344537 -1.979477
vt -0.344537 -2.057651
vt 4.206258 0.601839
vt 3.916361 0.601839
vt 1.001616 0.999926
vt 0.000074 0.999926
vt 0.000074 0.000074
vt 1.001616 0.000074
vt 1.002222 0.999999
vt 1.002222 0.000000
vt 0.996296 0.000000
vt 0.996296 1.000000
vt 0.993330 0.999999
vt 0.993333 0.000000
vt 0.499999 -0.845488
vt 0.500000 0.017384
vt 0.138038 0.017384
vt 0.138038 -0.845488
vt 0.500000 0.202873
vt 0.500000 -0.084976
vt 0.861961 -0.084976
vt 0.861961 0.202873
vt -1.866481 1.932921
vt -2.398828 1.932922
vt -2.398828 0.970237
vt -1.866482 0.970236
vt 0.500000 0.305233
vt 0.500000 1.871155
vt 0.138038 1.871155
vt 0.138038 0.305233
vt -0.585886 -0.947848
vt -0.585886 -0.858364
vt -0.947848 -0.858364
vt -0.947848 -0.947848
vt -3.463520 3.172730
vt -3.463520 0.970236
vt -2.931175 0.970237
vt -2.931174 3.172731
vt -4.141441 0.970236
vt -4.141440 3.172730
vt -4.819361 3.172730
vt -4.819362 0.970236
vt -2.931174 1.932922
vt 0.500001 1.768795
vt 0.861962 1.768795
vt -0.585886 1.850538
vt -0.947847 1.850538
vt 1.223923 0.202873
vt 1.223924 1.768795
vt -0.585885 0.017384
vt -0.585886 -0.845488
vt -0.223924 -0.845488
vt -0.223924 0.017384
vt 0.535927 -4.368465
vt 2.606511 -4.368465
vt 2.606510 -3.612502
vt 0.535926 -3.612503
vt 1.223923 -0.084975
vt 0.500000 1.947847
vt 0.138038 1.947847
vt 0.535928 -6.634583
vt 5.545762 -6.634582
vt 5.545762 -4.368465
vt 4.157500 -4.368465
vt -0.223923 1.947847
vt -0.223923 1.850538
vt 0.138038 1.850538
vt 5.545762 -3.612502
vt 4.157499 -3.612502
vt 1.223923 -0.947848
vt 0.861962 -0.947847
vt 5.545761 0.500000
vt 0.535927 0.500000
vt 0.394092 0.970235
vt 0.394092 0.714677
vt 0.535926 0.714678
vt 0.535926 0.970235
vt -4.630057 0.970236
vt -4.630057 0.714678
vt -3.034265 0.714678
vt -3.034265 0.970236
vt -3.034266 -6.399576
vt -3.034266 -6.634583
vt -2.501919 -6.634583
vt -2.501919 -6.399576
vt -2.501919 0.714678
vt -2.501919 0.970236
vt 0.394091 -6.399576
vt 0.394091 -6.634583
vt 0.535926 -6.399577
vt -4.630057 -6.399576
vt -4.630057 -6.634582
vt -4.819362 -6.399576
vt -4.819362 -6.634582
vt -4.819362 0.714677
vt -0.585885 1.947848
vt -0.585885 1.871155
vt -0.223923 1.871155
vt 1.585886 -0.947848
vt 1.585886 1.761055
vt 1.223924 1.761055
vt 0.500000 -0.947848
vt -0.585885 0.305233
vt -0.223924 0.305233
vt -0.223924 -0.947848
vt -0.223923 -0.858364
vt 0.138038 -0.947848
vt 0.138038 -0.858364
vt 1.947847 -0.947848
vt 1.947848 1.761055
vt -0.947847 1.947847
vn 0.000000 -1.000000 0.000000
vn 0.000000 1.000000 0.000000
vn 1.000000 0.000000 0.000000
vn -1.000000 0.000000 0.000000
vn 0.016700 0.000000 -0.999900
vn -0.010000 0.000000 1.000000
vn 0.016700 0.000000 0.999900
vn -0.010000 0.000000 -1.000000
vn 0.000000 0.000000 -1.000000
vn 0.000000 0.000000 1.000000
usemtl base
s off
f 12/1/1 2/2/1 94/3/1 98/4/1
f 19/5/2 20/6/2 104/7/2 103/8/2
f 17/9/2 18/10/2 102/11/2 101/12/2
f 23/13/2 24/14/2 108/15/2 107/16/2
f 16/17/1 11/18/1 3/19/1 4/20/1
f 1/21/1 2/22/1 12/23/1 15/24/1
f 15/25/1 12/1/1 11/18/1 16/17/1
f 15/26/3 22/27/3 106/28/3 99/29/3
f 3/19/1 11/18/1 97/30/1 95/31/1
f 2/2/1 1/32/1 93/33/1 94/3/1
f 22/27/3 15/26/3 49/34/3 52/35/3
f 16/36/4 21/27/4 51/35/4 50/37/4
f 101/38/4 102/39/4 94/40/4 93/41/4
f 108/42/5 103/43/5 95/44/5 97/45/5
f 103/46/3 104/47/3 96/48/3 95/49/3
f 106/50/6 101/51/6 93/52/6 99/53/6
f 104/54/7 105/55/7 100/29/7 96/56/7
f 102/57/8 107/58/8 98/59/8 94/60/8
f 107/58/9 108/42/9 97/45/9 98/59/9
f 20/6/2 21/61/2 105/62/2 104/7/2
f 11/18/1 12/1/1 98/4/1 97/30/1
f 18/10/2 23/13/2 107/16/2 102/11/2
f 21/27/4 16/36/4 100/63/4 105/28/4
f 16/17/1 4/20/1 96/64/1 100/65/1
f 4/20/1 3/19/1 95/31/1 96/64/1
f 24/14/2 19/5/2 103/8/2 108/15/2
f 1/32/1 15/25/1 99/66/1 93/33/1
f 22/67/2 17/9/2 101/12/2 106/68/2
usemtl top
f 21/69/1 22/70/1 52/71/1 51/72/1
f 31/73/9 32/74/9 24/75/9 23/76/9
f 26/77/9 31/73/9 23/76/9 18/78/9
f 29/79/10 30/80/10 22/81/10 21/82/10
f 28/77/10 29/79/10 21/82/10 20/78/10
f 30/80/10 48/83/10 46/84/10 25/85/10 17/86/10 22/81/10
f 27/77/3 43/87/3 41/88/3 28/85/3 20/86/3 19/78/3
f 32/74/9 27/85/9 19/86/9 24/75/9
f 25/89/4 87/90/4 85/91/4 26/92/4 18/93/4 17/94/4
f 86/95/4 34/96/4 26/92/4 85/91/4
f 40/97/9 35/98/9 27/85/9 32/74/9
f 42/99/3 36/98/3 28/85/3 41/88/3
f 45/100/10 33/98/10 25/85/10 46/84/10
f 36/101/10 37/102/10 29/79/10 28/77/10
f 37/103/1 38/104/1 60/105/1 59/106/1
f 34/101/9 39/107/9 31/73/9 26/77/9
f 39/108/1 40/109/1 84/110/1 83/111/1
f 9/81/9 10/82/9 40/102/9 39/112/9
f 6/86/9 109/113/9 9/81/9 39/112/9 34/98/9
f 13/75/10 14/76/10 38/107/10 37/97/10
f 8/86/10 116/114/10 13/75/10 37/97/10 36/98/10
f 7/86/3 123/115/3 114/116/3 8/78/3 36/101/3 42/117/3 44/118/3 35/98/3
f 10/82/9 118/119/9 7/78/9 35/101/9 40/102/9
f 43/120/10 44/121/10 80/122/10 79/123/10
f 35/101/3 44/124/3 43/87/3 27/77/3
f 48/125/4 47/126/4 55/127/4 56/128/4
f 38/112/10 47/129/10 48/83/10 30/80/10
f 46/130/2 48/131/2 56/132/2 54/133/2
f 47/134/1 45/135/1 53/136/1 55/137/1
f 45/138/3 46/139/3 54/140/3 53/141/3
f 30/104/2 29/136/2 57/142/2 58/105/2
f 38/143/3 30/144/3 58/126/3 60/145/3
f 29/146/4 37/103/4 59/106/4 57/147/4
f 14/76/10 110/148/10 5/78/10 62/149/10 63/150/10
f 38/107/10 14/76/10 63/150/10 64/151/10
f 64/139/4 63/152/4 66/153/4 67/154/4
f 65/155/2 64/156/2 67/131/2 68/157/2
f 62/70/3 65/158/3 68/159/3 61/160/3
f 33/101/10 65/161/10 62/149/10 5/78/10
f 5/86/4 112/162/4 120/163/4 6/78/4 34/101/4 86/164/4 88/165/4 33/98/4
f 47/166/10 38/107/10 64/151/10 65/161/10 33/101/10 45/167/10
f 63/152/1 62/155/1 61/157/1 66/153/1
f 44/168/1 42/169/1 78/170/1 80/171/1
f 41/171/2 43/170/2 79/111/2 77/172/2
f 42/173/9 41/122/9 77/121/9 78/174/9
f 32/175/2 31/69/2 81/176/2 82/177/2
f 40/177/4 32/178/4 82/179/4 84/175/4
f 31/174/3 39/179/3 83/178/3 81/180/3
f 87/181/9 88/182/9 92/183/9 91/184/9
f 33/185/4 88/186/4 87/90/4 25/89/4
f 88/187/1 86/188/1 90/189/1 92/190/1
f 85/191/2 87/187/2 91/190/2 89/192/2
f 86/182/10 85/181/10 89/193/10 90/194/10
usemtl Door
f 51/195/10 52/196/10 49/197/10 50/198/10
usemtl window
f 55/199/10 53/78/10 54/101/10 56/200/10
f 59/101/10 60/201/10 58/202/10 57/78/10
f 68/202/10 67/78/10 66/101/10 61/201/10
f 80/203/3 78/78/3 77/101/3 79/204/3
f 83/101/9 84/201/9 82/202/9 81/78/9
f 92/101/4 90/201/4 89/202/4 91/78/4
usemtl ceiling
f 118/205/9 10/206/9 130/207/9 142/208/9
f 124/209/10 121/210/10 145/211/10 148/212/10
f 71/213/10 72/214/10 76/215/10 75/216/10
f 9/217/9 109/218/9 133/219/9 129/220/9
f 6/221/4 120/222/4 144/223/4 126/224/4
f 76/225/2 74/226/2 73/227/2 75/228/2
f 72/229/3 70/230/3 74/231/3 76/232/3
f 69/230/4 71/229/4 75/226/4 73/225/4
f 70/227/9 69/215/9 73/214/9 74/233/9
f 122/234/10 124/209/10 148/212/10 146/235/10
f 120/222/4 112/236/4 136/237/4 144/223/4
f 113/238/9 111/239/9 135/235/9 137/212/9
f 13/240/10 116/241/10 140/242/10 131/243/10
f 115/244/2 72/245/2 71/246/2 113/247/2
f 115/248/9 113/238/9 137/212/9 139/211/9
f 109/218/9 6/249/9 126/250/9 133/219/9
f 117/251/2 119/252/2 121/253/2 70/254/2 72/245/2 115/244/2
f 8/255/3 114/256/3 138/257/3 128/250/3
f 70/254/2 121/253/2 124/258/2 69/259/2
f 117/260/9 115/248/9 139/211/9 141/261/9
f 113/247/2 71/246/2 69/259/2 124/258/2 122/262/2 111/263/2
f 134/264/2 135/265/2 136/266/2 125/267/2
f 140/268/2 141/269/2 139/270/2 131/271/2
f 145/272/2 130/273/2 129/274/2 148/275/2
f 131/271/2 139/270/2 137/276/2 132/277/2
f 132/277/2 137/276/2 135/265/2 134/264/2
f 146/278/2 133/279/2 126/251/2 144/280/2
f 146/278/2 148/275/2 129/274/2 133/279/2
f 143/281/2 142/282/2 130/273/2 145/272/2
f 147/283/2 127/284/2 142/282/2 143/281/2
f 128/232/2 138/285/2 141/269/2 140/268/2
f 135/265/2 146/278/2 144/280/2 136/266/2
f 138/285/2 147/283/2 143/281/2 141/269/2
f 5/286/10 110/287/10 134/288/10 125/255/10
f 111/289/3 122/290/3 146/291/3 135/260/3
f 121/210/10 119/292/10 143/261/10 145/211/10
f 110/287/10 14/293/10 132/294/10 134/288/10
f 116/241/10 8/221/10 128/295/10 140/242/10
f 123/296/3 7/295/3 127/297/3 147/298/3
f 14/293/10 13/240/10 131/243/10 132/294/10
f 7/292/9 118/205/9 142/208/9 127/297/9
f 10/206/9 9/217/9 129/220/9 130/207/9
f 114/256/3 123/296/3 147/298/3 138/257/3
f 119/299/4 117/300/4 141/290/4 143/289/4
f 112/236/4 5/286/4 125/301/4 136/237/4
