# Blender v2.76 (sub 0) OBJ File: 'vivienda_garaje.blend'
# www.blender.org
mtllib vivienda_garaje.mtl
o Cube
v -2.500000 -2.000000 2.500000
v -2.500000 2.000000 2.500000
v -2.500000 -2.000000 -2.500000
v -2.500000 2.000000 -2.500000
v 2.500000 -2.000000 2.500000
v 2.500000 2.000000 2.500000
v 2.500000 -2.000000 -2.500000
v 2.500000 2.000000 -2.500000
v -2.500000 2.207259 2.500000
v -2.500000 2.207259 -2.500000
v 2.500000 2.207259 -2.500000
v 2.500000 2.207259 2.500000
v -2.150464 2.207259 2.150464
v -2.150464 2.207259 -2.150464
v 2.150464 2.207259 -2.150464
v 2.150464 2.207259 2.150464
v -2.500000 2.816082 2.500000
v -2.500000 2.816082 -2.500000
v 2.500000 2.816082 -2.500000
v 2.500000 2.816082 2.500000
v -2.150464 2.816082 2.150464
v -2.150464 2.816082 -2.150464
v 2.150464 2.816082 -2.150464
v 2.150464 2.816082 2.150464
v -2.449401 2.036946 2.449401
v -2.449401 2.036946 -2.449401
v 2.449401 2.036946 -2.449401
v 2.449401 2.036946 2.449401
v -2.449401 2.244205 2.449401
v -2.449401 2.244205 -2.449401
v 2.449401 2.244205 -2.449401
v 2.449401 2.244205 2.449401
v -2.500000 0.017649 2.500000
v -2.500000 0.017649 -2.500000
v 2.500000 0.017649 -2.500000
v 2.500000 0.017649 2.500000
v -1.062096 -2.000000 2.500000
v -1.062096 0.017649 2.500000
v -1.062096 -1.295337 2.500000
v 0.122906 -2.000000 2.500000
v 0.122906 0.017649 2.500000
v 0.122906 -1.295337 2.500000
v 2.500000 -2.000000 1.075968
v 2.500000 -1.295337 1.075968
v 2.500000 0.017649 1.075968
v 2.500000 -2.000000 -1.535903
v 2.500000 -1.295337 -1.535903
v 2.500000 0.017649 -1.535903
v 2.362359 -1.295337 1.075968
v 2.362359 -2.000000 1.075968
v 2.362359 0.017649 1.075968
v 2.362359 -2.000000 -1.535903
v 2.362359 -1.295337 -1.535903
v 2.362359 0.017649 -1.535903
v -1.062096 0.017649 2.649659
v -1.062096 -1.295337 2.649659
v -1.062096 -2.000000 2.649659
v 0.122906 -2.000000 2.649659
v 0.122906 0.017649 2.649659
v 0.122906 -1.295337 2.649659
v -1.038868 -0.052609 2.649659
v -1.038868 -1.314121 2.649659
v -1.038868 -1.991159 2.649659
v 0.099678 -1.991159 2.649659
v 0.099678 -0.052609 2.649659
v 0.099678 -1.314121 2.649659
v -1.038868 -0.052609 2.488791
v -1.038868 -1.314121 2.488791
v -1.038868 -1.991159 2.488791
v 0.099678 -1.991159 2.488791
v 0.099678 -0.052609 2.488791
v 0.099678 -1.314121 2.488791
v -2.559032 -1.295337 -2.559032
v -2.559032 -2.000000 -2.559032
v -2.559032 -2.000000 2.559032
v 2.559032 -1.295337 -2.559032
v 2.559032 -2.000000 -2.559032
v 2.559032 -1.295337 2.559032
v 2.559032 -2.000000 2.559032
v 2.583484 -2.000000 -1.535903
v 0.122906 -2.000000 2.583484
v -2.559032 -1.295337 2.559032
v -2.559032 0.017649 -2.559032
v 2.559032 0.017649 -2.559032
v 2.559032 0.017649 2.559032
v 0.122906 -1.295337 2.583484
v 2.583484 -1.295337 -1.535903
v -2.559032 0.017649 2.559032
v 2.583484 0.017649 -1.535903
v 0.122906 0.017649 2.583484
v -1.062096 -2.000000 2.583484
v -1.062096 0.017649 2.583484
v -1.062096 -1.295337 2.583484
v 2.583484 -2.000000 1.075968
v 2.583484 -1.295337 1.075968
v 2.583484 0.017649 1.075968
v -2.500000 0.770800 2.500000
v -2.500000 1.431584 2.500000
v -2.500000 1.431584 -2.500000
v -2.500000 0.770800 -2.500000
v 2.500000 1.431584 -2.500000
v 2.500000 0.770800 -2.500000
v -2.500000 1.431584 -1.110878
v -2.500000 0.770800 -1.110879
v -2.500000 1.431584 -0.667218
v -2.500000 0.770800 -0.667218
v -2.500000 1.431584 0.942840
v -2.500000 0.770800 0.942839
v -2.500000 1.431584 1.443747
v -2.500000 0.770800 1.443746
v 1.382202 0.770800 -2.500000
v 1.382203 1.431584 -2.500000
v 0.547548 0.770800 -2.500000
v 0.547549 1.431584 -2.500000
v -0.701495 1.002069 2.500000
v -0.701495 1.193407 2.500000
v 0.981588 1.193407 2.500000
v 0.981588 0.526115 2.500000
v 0.181419 0.526115 2.500000
v -0.701495 0.526115 2.500000
v -0.217473 0.526115 2.500000
v -0.701495 0.779638 2.500000
v -0.701495 1.193407 2.291177
v 0.981588 1.193407 2.291177
v 0.981588 0.526115 2.291177
v -0.701495 0.526115 2.291177
v 1.827773 -0.376474 2.566372
v 1.827773 -0.901214 2.566372
v 0.854165 -0.901214 2.576145
v 0.854165 -0.376474 2.576145
v 1.825514 -0.376474 2.341276
v 1.825514 -0.901214 2.341276
v 0.851906 -0.901214 2.351048
v 0.851906 -0.376474 2.351048
v -2.464804 1.431584 -1.110878
v -2.464804 0.770800 -1.110879
v -2.464804 1.431584 -0.667218
v -2.464804 0.770800 -0.667218
v -2.464804 1.431584 0.942840
v -2.464804 0.770800 0.942839
v -2.464804 1.431584 1.443747
v -2.464804 0.770800 1.443746
v 1.382203 1.431584 -2.443759
v 1.382202 0.770800 -2.443759
v 0.547548 0.770800 -2.443759
v 0.547549 1.431584 -2.443759
v -2.559032 -2.000000 -0.700804
v -2.559032 -1.295337 -0.700804
v -2.559032 0.017649 -0.700804
v -2.559032 -2.000000 -0.466808
v -2.559032 -1.295337 -0.466808
v -2.559032 0.017649 -0.466808
v -2.697690 -1.295337 -0.700804
v -2.697690 -2.000000 -0.700804
v -2.697690 0.017649 -0.700804
v -2.697690 -2.000000 -0.466808
v -2.697690 -1.295337 -0.466808
v -2.697690 0.017649 -0.466808
v -2.697690 -1.295337 -0.672907
v -2.697690 -2.000000 -0.672907
v -2.697690 0.017649 -0.672907
v -2.697690 -2.000000 -0.494705
v -2.697690 -1.295337 -0.494705
v -2.697690 0.017649 -0.494705
v -3.877149 -1.295337 -0.672907
v -3.877149 -2.000000 -0.672907
v -3.877149 0.017649 -0.672907
v -3.877149 -2.000000 -0.494705
v -3.877149 -1.295337 -0.494705
v -3.877149 0.017649 -0.494705
v -2.697690 -1.295337 -1.046390
v -2.697690 -2.000000 -1.046390
v -3.877149 -1.295337 -1.046390
v -3.877149 -2.000000 -1.046390
v -2.858000 -1.295337 -0.723670
v -3.716839 -1.295337 -0.723670
v -2.858000 -1.295337 -0.995627
v -3.716839 -1.295337 -0.995627
v -2.858000 -1.384097 -0.723670
v -3.716839 -1.384097 -0.723670
v -2.858000 -1.384097 -0.995627
v -3.716839 -1.384097 -0.995627
vt 0.250000 0.250000
vt 2.750000 0.250000
vt 2.724700 0.275300
vt 0.275300 0.275300
vt 0.424768 0.603629
vt 2.575232 0.603629
vt 2.575232 0.908041
vt 0.424768 0.908041
vt 0.250000 0.750000
vt 2.750000 0.750000
vt 2.724700 0.724700
vt 0.275300 0.724700
vt 0.250000 -1.750000
vt 0.275300 -1.724700
vt 0.750000 0.250000
vt -1.750000 0.250000
vt -1.724700 0.275300
vt 0.724700 0.275300
vt 0.575232 0.424768
vt 0.575232 2.575232
vt -1.575232 2.575232
vt -1.575232 0.424768
vt 0.575232 0.603629
vt -1.575232 0.603629
vt -1.575232 0.908041
vt 0.575232 0.908041
vt 0.750000 0.603629
vt -1.750000 0.603629
vt -1.750000 0.908041
vt 0.750000 0.908041
vt 0.250000 0.603629
vt 2.750000 0.603629
vt 2.750000 0.908041
vt 0.250000 0.908041
vt 2.575232 0.424768
vt 0.424768 0.424768
vt 0.750000 0.750000
vt -1.750000 0.750000
vt -1.575232 0.575232
vt 0.575232 0.575232
vt 0.750000 2.750000
vt 0.424768 -1.575232
vt 0.424768 0.575232
vt 0.724700 0.518473
vt -1.724700 0.518473
vt -1.724700 0.622102
vt 0.724700 0.622102
vt 0.275300 0.518473
vt 2.724700 0.518473
vt 2.724700 0.622102
vt 0.275300 0.622102
vt -1.724700 0.724700
vt 0.724700 0.724700
vt 0.750000 -1.750000
vt 0.724700 -1.724700
vt 0.250000 2.750000
vt 0.275300 2.724700
vt 0.724700 2.724700
vt 0.250000 0.885400
vt 0.778127 0.885400
vt 1.028580 0.885400
vt 1.833609 0.885400
vt 2.055439 0.885400
vt 2.750000 0.885400
vt 2.750000 0.508824
vt 0.250000 0.508824
vt 1.773774 0.885400
vt 2.191101 0.885400
vt 0.750000 0.500000
vt -1.750000 0.500000
vt -1.750000 -0.491176
vt -1.037984 -0.491176
vt 0.267951 -0.491176
vt 0.750000 -0.491176
vt 0.750000 -0.114600
vt 0.750000 0.215792
vt 0.968952 0.508824
vt 1.391263 0.763057
vt 1.149252 0.763057
vt 0.750000 0.267951
vt 0.750000 -1.037984
vt 0.681179 -1.037984
vt 0.681179 0.267951
vt 0.250000 0.500000
vt 2.750000 0.500000
vt 2.750000 0.215792
vt 2.191102 0.215792
vt 1.773775 0.215792
vt 0.250000 0.215792
vt 0.191101 0.215792
vt 0.191101 -0.114600
vt 2.055439 0.215792
vt 1.833609 0.215792
vt 1.028580 0.215792
vt 0.778127 0.215792
vt 0.055439 0.215792
vt 0.055439 -0.114600
vt 0.250000 -0.114600
vt 0.267598 -0.114600
vt 0.267598 0.215792
vt 0.028580 0.215792
vt 0.833609 0.215792
vt 0.833609 -0.114600
vt 0.028580 -0.114600
vt 0.250000 0.055439
vt 0.250000 -0.166391
vt 0.267598 -0.166391
vt 0.267598 0.055439
vt 0.778127 -0.114600
vt 0.191101 0.750000
vt -0.226226 0.750000
vt -0.226226 0.721879
vt 0.191101 0.721879
vt 1.773774 -0.114600
vt 1.149252 0.001034
vt 1.149252 0.096704
vt 1.149252 -0.110181
vt 0.561453 0.508824
vt 1.750000 0.508824
vt 0.990794 0.763057
vt 0.590709 0.763057
vt 1.561453 0.508824
vt 1.590709 0.763057
vt 0.750000 0.508824
vt 0.750000 1.500000
vt -0.009206 1.096704
vt -0.009206 0.763057
vt -0.850748 0.096704
vt -0.009206 0.096704
vt 1.149252 0.889819
vt 0.250000 0.763057
vt 0.250000 1.096704
vt 0.354411 1.096704
vt 0.354411 0.763057
vt 0.250000 0.889819
vt 0.354411 0.096704
vt 0.250000 0.096704
vt 0.250000 0.001034
vt 0.990794 0.250000
vt 0.149252 0.250000
vt 0.149252 0.354411
vt 0.990794 0.354411
vt 0.413887 0.216814
vt -0.072917 0.211928
vt -0.074047 0.324476
vt 0.412757 0.329362
vt 0.250000 1.215792
vt 0.267598 1.215792
vt 0.267598 0.885400
vt 0.250000 0.778127
vt 0.250000 1.028580
vt 0.267598 1.028580
vt 0.267598 0.778127
vt 0.250000 0.833609
vt 0.250000 1.055439
vt 0.267598 1.055439
vt 0.267598 0.833609
vt 0.250000 0.028580
vt 0.250000 -0.221873
vt 0.267598 -0.221873
vt 0.267598 0.028580
vt 0.773775 0.750000
vt 1.191101 0.750000
vt 1.191101 0.721879
vt 0.773775 0.721879
vt 0.721879 -0.114600
vt 0.721879 0.215792
vt 0.750000 0.885400
vt 0.750000 1.215792
vt 0.721879 1.215792
vt 0.721879 0.885400
vt 0.391263 0.250000
vt 0.590709 0.250000
vt 0.941596 0.957309
vt 0.006029 0.957309
vt 0.006029 0.020151
vt 0.941596 0.020151
vt 0.742699 0.767316
vt 0.004264 0.767316
vt 0.004264 0.053611
vt 0.742699 0.053611
vt 0.191981 0.780061
vt 0.003728 0.780061
vt 0.003728 0.030512
vt 0.191981 0.030512
vt 0.929405 0.809679
vt 0.740278 0.809679
vt 0.740277 0.029295
vt 0.929405 0.029295
vt 0.373578 0.812225
vt 0.173449 0.812225
vt 0.173449 0.017513
vt 0.373578 0.017513
vt 0.750000 0.852332
vt 0.750000 1.508824
vt 0.791742 1.508824
vt 0.791742 0.852332
vt -0.438547 0.250000
vt -0.438547 0.208258
vt 0.779516 0.220484
vt 0.791742 0.500000
vt 0.791742 0.267951
vt 0.779516 0.779516
vt 2.750000 2.750000
vt 2.750000 2.267951
vt 2.750000 0.962016
vt 1.561453 0.250000
vt 0.968952 0.250000
vt 0.750000 0.962016
vt 0.791742 0.962016
vt 2.779516 0.779516
vt 0.220484 0.779516
vt 0.750000 -0.147668
vt 0.791742 -0.147668
vt 0.791742 0.508824
vt 0.250000 0.852332
vt 0.208258 0.852332
vt 0.208258 0.500000
vt 0.561453 0.250000
vt -0.031048 0.250000
vt -0.031048 0.175171
vt 0.561453 0.175171
vt 0.250000 1.508824
vt 0.175171 1.508824
vt 0.175171 0.852332
vt -1.779516 0.779516
vt 0.220484 2.779516
vt 0.220484 1.850402
vt 0.220484 1.733404
vt 0.220484 0.220484
vt 0.681179 1.508824
vt 0.681179 0.852332
vt 0.208258 1.508824
vt 0.750000 2.267951
vt 0.681179 2.267951
vt 0.681179 0.962016
vt 0.681179 0.500000
vt 0.681179 -0.147668
vt 0.681179 0.508824
vt 0.561453 0.852332
vt 0.561453 1.508824
vt 0.549839 1.473695
vt 0.549839 0.842939
vt 0.968952 -0.147668
vt 0.980566 -0.157061
vt 0.980566 0.473695
vt 0.175171 0.500000
vt 1.561453 0.175171
vt 0.968952 0.175171
vt 0.250000 -0.147668
vt 0.175171 -0.147668
vt 0.175171 0.508824
vt 0.980566 0.175171
vt 1.549839 0.175171
vt 1.549839 0.255604
vt 0.980566 0.255604
vt 0.175171 0.504421
vt 0.175171 0.842939
vt 0.255604 0.842939
vt 0.255604 0.504421
vt -0.031048 0.508824
vt -0.019434 0.473695
vt 0.549839 0.473695
vt 0.968952 0.852332
vt 0.968952 0.500000
vt 0.980566 0.504421
vt 0.980566 0.842939
vt 0.561453 0.500000
vt 0.549839 0.504421
vt 1.561453 0.500000
vt 1.549839 0.504421
vt 0.175171 0.473695
vt 0.175171 -0.157061
vt 0.255604 -0.157061
vt 0.255604 0.473695
vt 0.175171 1.473695
vt 0.255604 1.473695
vt 0.549839 0.175171
vt -0.019434 0.175171
vt -0.019434 0.255604
vt 0.549839 0.255604
vt 0.850402 0.852332
vt 1.779516 0.852332
vt 1.779516 0.500000
vt 0.850402 0.500000
vt 0.220484 0.852332
vt 2.779516 0.852332
vt 2.779516 0.500000
vt 0.220484 0.500000
vt 0.962016 0.852332
vt 0.962016 0.500000
vt 0.220484 0.508824
vt 0.220484 -0.147668
vt 0.962016 0.508824
vt 0.962016 -0.147668
vt 2.779516 0.508824
vt 2.779516 -0.147668
vt 0.850402 0.508824
vt 1.779516 0.508824
vt 1.779516 -0.147668
vt 0.850402 -0.147668
vt 0.779516 0.852332
vt 0.779516 1.508824
vt 0.413887 1.311763
vt 0.413887 1.049393
vt -0.438547 0.852332
vt -0.438547 0.500000
vt 0.779516 0.500000
vt 0.267951 0.852332
vt 0.267951 0.500000
vt 0.779516 0.508824
vt 0.267951 0.508824
vt 0.267951 -0.147668
vt 0.779516 -0.147668
vt 0.968952 0.208258
vt 0.208258 -0.147668
vt 0.208258 0.508824
vt 0.220484 -1.779516
vt 0.220484 -0.266596
vt 0.220484 -0.149598
vt 1.750000 0.250000
vt 1.779516 0.220484
vt 0.561453 0.208258
vt 0.211928 0.311763
vt 0.211928 0.049393
vt 0.324476 0.049393
vt 0.324476 0.311763
vt -0.438547 0.508824
vt -0.072917 0.311763
vt 0.413887 0.311763
vt 1.413887 1.049393
vt 0.927083 1.049393
vt 0.561453 -0.147668
vt 0.927083 0.049393
vt 0.927083 0.311763
vt 0.927083 0.211928
vt 1.413887 0.216814
vt 1.412757 0.329362
vt 0.925953 0.324476
vt 0.216814 0.049393
vt 0.216814 0.311763
vt 0.329362 0.311763
vt 0.329362 0.049393
vt 0.220484 0.733404
vt 0.220484 0.850402
vt 0.151155 0.850402
vt 0.151155 0.733404
vt 0.151155 0.852332
vt 0.151155 0.500000
vt 1.733404 0.508824
vt 1.733404 -0.147668
vt 1.733404 0.852332
vt 1.733404 0.500000
vt 0.733404 0.508824
vt 0.836453 0.508824
vt 0.747353 0.508824
vt 0.733404 0.500000
vt 0.733404 0.852332
vt 0.747353 0.852332
vt 0.747353 0.500000
vt 0.220484 1.508824
vt 0.151155 1.508824
vt 0.151155 -0.147668
vt 0.151155 0.508824
vt -0.438574 -0.147668
vt -0.438574 0.508824
vt -0.438574 1.508824
vt -0.438574 0.852332
vt 0.151155 0.747353
vt 0.151155 0.836453
vt 0.836453 0.500000
vt 0.836453 0.852332
vt 0.733404 1.508824
vt 0.747353 1.508824
vt 0.836453 -0.147668
vt 0.747353 -0.147668
vt -0.438574 0.500000
vt -0.438574 0.836453
vt -0.438574 0.747353
vt 1.023195 0.500000
vt 1.023195 0.852332
vt 0.561426 0.836453
vt 1.151155 0.836453
vt 1.071000 0.861835
vt 0.641581 0.861835
vt -0.438574 1.023195
vt 0.151155 1.023195
vt 0.997813 0.852332
vt 0.861835 0.852332
vt 0.861835 0.807952
vt 0.997813 0.807952
vt 0.071000 0.997813
vt 0.071000 0.861835
vt 0.561426 0.023195
vt 0.561426 -0.163547
vt 0.641581 -0.138165
vt 0.641581 -0.002187
vt 0.151155 0.023195
vt -0.438574 0.023195
vt -0.358419 -0.002187
vt 0.071000 -0.002187
vt 1.071000 0.997813
vt 0.641581 0.997813
vt 0.071000 0.852332
vt -0.358419 0.852332
vt -0.358419 0.807952
vt 0.071000 0.807952
vt 0.641581 0.852332
vt 1.071000 0.852332
vt 1.071000 0.807952
vt 0.641581 0.807952
vt 0.996559 0.440115
vt -0.001277 0.440115
vt -0.001277 0.003793
vt 0.996559 0.003793
vt 0.996559 1.006433
vt -0.001277 1.006433
vt 0.809247 0.853950
vt 0.196419 0.853950
vt 0.196419 0.320613
vt 0.196419 0.051870
vt 0.809247 0.051870
vt 0.809247 0.320613
vn 0.000000 0.807600 0.589700
vn 1.000000 0.000000 0.000000
vn 0.000000 -0.807600 0.589700
vn -0.589700 0.807600 0.000000
vn 0.000000 -0.807600 -0.589700
vn 0.000000 1.000000 0.000000
vn -1.000000 0.000000 0.000000
vn 0.000000 0.000000 -1.000000
vn 0.000000 0.000000 1.000000
vn 0.000000 0.807600 -0.589700
vn -0.589700 -0.807600 0.000000
vn 0.589700 -0.807600 0.000000
vn 0.589700 0.807600 0.000000
vn 0.000000 -1.000000 0.000000
vn 0.010000 0.000000 0.999900
vn 0.999900 0.000000 0.016500
vn -0.016300 0.000000 0.999900
vn 0.999700 0.000000 -0.023900
vn 0.999900 0.000000 -0.010000
vn -0.999900 0.000000 0.010000
usemtl base
s off
f 2/1/1 6/2/1 28/3/1 25/4/1
f 13/5/2 14/6/2 22/7/2 21/8/2
f 10/9/3 11/10/3 31/11/3 30/12/3
f 4/9/4 2/13/4 25/14/4 26/12/4
f 12/15/5 9/16/5 29/17/5 32/18/5
f 16/19/6 15/20/6 14/21/6 13/22/6
f 15/23/7 16/24/7 24/25/7 23/26/7
f 11/27/8 10/28/8 18/29/8 19/30/8
f 9/31/9 12/32/9 20/33/9 17/34/9
f 17/1/6 20/2/6 24/35/6 21/36/6
f 19/37/6 18/38/6 22/39/6 23/40/6
f 20/15/6 19/41/6 23/20/6 24/19/6
f 18/9/6 17/13/6 21/42/6 22/43/6
f 12/31/2 11/32/2 19/33/2 20/34/2
f 16/23/8 13/24/8 21/25/8 24/26/8
f 10/27/7 9/28/7 17/29/7 18/30/7
f 14/5/9 15/6/9 23/7/9 22/8/9
f 26/44/7 25/45/7 29/46/7 30/47/7
f 25/48/9 28/49/9 32/50/9 29/51/9
f 27/44/8 26/45/8 30/46/8 31/47/8
f 28/48/2 27/49/2 31/50/2 32/51/2
f 8/37/10 4/38/10 26/52/10 27/53/10
f 11/37/11 12/54/11 32/55/11 31/53/11
f 9/1/12 10/56/12 30/57/12 29/4/12
f 6/15/13 8/41/13 27/58/13 28/18/13
f 97/59/7 110/60/7 108/61/7 106/62/7 104/63/7 100/64/7 34/65/7 33/66/7
f 100/59/8 113/67/8 111/68/8 102/64/8 35/65/8 34/66/8
f 8/69/2 6/70/2 36/71/2 45/72/2 48/73/2 35/74/2 102/75/2 101/76/2
f 33/66/9 38/77/9 121/78/9 120/79/9
f 48/80/14 45/81/14 51/82/14 54/83/14
f 4/84/8 8/85/8 101/86/8 112/87/8 114/88/8 99/89/8
f 112/90/8 101/76/8 102/75/8 111/91/8
f 2/84/7 4/85/7 99/86/7 103/92/7 105/93/7 107/94/7 109/95/7 98/89/7
f 103/96/7 99/76/7 100/75/7 104/97/7
f 103/89/9 104/98/9 136/99/9 135/100/9
f 107/101/7 105/102/7 106/103/7 108/104/7
f 104/105/6 106/106/6 138/107/6 136/108/6
f 98/89/7 109/95/7 110/109/7 97/98/7
f 111/110/6 113/111/6 145/112/6 144/113/6
f 99/89/8 114/88/8 113/114/8 100/98/8
f 2/84/9 98/89/9 115/115/9 116/116/9
f 98/89/9 97/98/9 122/117/9 115/115/9
f 41/118/9 36/119/9 118/120/9 119/121/9
f 38/77/9 41/122/9 119/123/9 121/78/9
f 36/124/9 6/125/9 117/126/9 118/127/9
f 6/69/9 2/70/9 116/128/9 117/129/9
f 97/59/9 33/66/9 120/79/9 122/130/9
f 118/131/7 117/132/7 124/133/7 125/134/7
f 122/135/2 120/131/2 126/134/2 123/136/2 116/137/2 115/138/2
f 117/139/14 116/140/14 123/141/14 124/142/14
f 127/143/14 130/144/14 134/145/14 131/146/14
f 110/59/8 109/147/8 141/148/8 142/149/8
f 109/150/14 107/151/14 139/152/14 141/153/14
f 106/59/8 105/147/8 137/148/8 138/149/8
f 105/154/14 103/155/14 135/156/14 137/157/14
f 108/158/6 110/159/6 142/160/6 140/161/6
f 107/89/9 108/98/9 140/99/9 139/100/9
f 114/162/14 112/163/14 143/164/14 146/165/14
f 112/76/7 111/75/7 144/166/7 143/167/7
f 113/168/2 114/169/2 146/170/2 145/171/2
f 120/140/6 121/172/6 119/173/6 118/139/6 125/142/6 126/141/6
usemtl ventana
f 124/174/9 123/175/9 126/176/9 125/177/9
f 131/178/15 134/179/15 133/180/15 132/181/15
f 137/182/7 135/183/7 136/184/7 138/185/7
f 141/186/7 139/187/7 140/188/7 142/189/7
f 146/190/8 143/191/8 144/192/8 145/193/8
usemtl zocalo
f 44/194/8 45/195/8 96/196/8 95/197/8
f 36/15/6 41/198/6 90/199/6 85/200/6
f 43/69/8 44/194/8 95/197/8 94/201/8
f 35/37/6 48/80/6 89/202/6 84/203/6
f 1/1/14 3/56/14 7/204/14 46/205/14 43/206/14 5/2/14 40/207/14 37/208/14
f 45/209/6 36/15/6 85/200/6 96/210/6
f 34/9/6 35/10/6 84/211/6 83/212/6
f 48/124/9 47/213/9 87/214/9 89/215/9
f 37/84/2 39/216/2 93/217/2 91/218/2
f 41/219/6 38/220/6 55/221/6 59/222/6
f 42/216/2 41/223/2 59/224/2 60/225/2
f 7/37/14 3/38/14 74/226/14 77/203/14
f 33/1/6 34/56/6 83/227/6 149/228/6 152/229/6 88/230/6
f 47/194/9 48/195/9 54/231/9 53/232/9
f 47/194/9 46/69/9 80/201/9 87/197/9
f 39/216/2 38/223/2 92/233/2 93/217/2
f 43/209/6 46/234/6 52/235/6 50/236/6
f 44/194/8 43/69/8 50/237/8 49/232/8
f 46/69/9 47/194/9 53/232/9 52/237/9
f 45/124/8 44/213/8 49/238/8 51/239/8
f 60/240/9 59/241/9 65/242/9 66/243/9
f 55/77/9 56/244/9 62/245/9 61/246/9
f 39/216/7 37/84/7 57/247/7 56/225/7
f 40/84/2 42/216/2 60/225/2 58/247/2
f 37/208/14 40/207/14 58/248/14 57/249/14
f 38/66/7 39/250/7 56/251/7 55/252/7
f 63/253/6 64/254/6 70/255/6 69/256/6
f 64/257/7 66/258/7 72/259/7 70/260/7
f 59/118/9 55/261/9 61/262/9 65/263/9
f 56/264/9 57/265/9 63/266/9 62/267/9
f 58/268/9 60/240/9 66/243/9 64/269/9
f 57/265/9 58/270/9 64/271/9 63/266/9
f 61/272/2 62/273/2 68/274/2 67/275/2
f 66/258/7 65/276/7 71/277/7 72/259/7
f 65/278/14 61/279/14 67/280/14 71/281/14
f 62/258/2 63/257/2 69/260/2 68/259/2
f 148/282/7 73/283/7 74/284/7 147/285/7
f 73/286/8 76/287/8 77/288/8 74/289/8
f 95/290/16 78/286/16 79/289/16 94/291/16
f 93/264/17 82/286/17 75/289/17 91/265/17
f 92/77/17 88/292/17 82/293/17 93/244/17
f 96/294/16 85/292/16 78/293/16 95/295/16
f 83/292/8 84/296/8 76/297/8 73/293/8
f 149/298/7 83/299/7 73/300/7 148/301/7
f 78/302/15 85/303/15 127/304/15 128/305/15
f 78/302/15 86/306/15 81/307/15 79/308/15
f 76/302/18 87/309/18 80/310/18 77/308/18
f 84/311/18 89/312/18 87/313/18 76/314/18
f 46/80/14 7/37/14 77/203/14 80/202/14
f 1/1/14 37/208/14 91/315/14 75/230/14
f 41/66/7 42/250/7 86/316/7 90/317/7
f 3/9/14 1/13/14 75/318/14 150/319/14 147/320/14 74/212/14
f 38/208/6 33/1/6 88/230/6 92/315/6
f 42/216/7 40/84/7 81/218/7 86/217/7
f 40/219/14 5/321/14 79/322/14 81/323/14
f 5/15/14 43/209/14 94/210/14 79/200/14
f 130/324/19 129/325/19 133/326/19 134/327/19
f 85/311/15 90/328/15 130/329/15 127/330/15
f 86/240/15 78/283/15 128/331/15 129/332/15
f 90/118/15 86/333/15 129/334/15 130/335/15
f 129/336/6 128/337/6 132/338/6 133/339/6
f 128/340/20 127/341/20 131/342/20 132/343/20
f 152/344/6 149/345/6 155/346/6 158/347/6
f 150/289/9 151/286/9 157/348/9 156/349/9
f 88/292/7 152/350/7 151/351/7 82/293/7
f 82/286/7 151/352/7 150/353/7 75/289/7
f 158/354/2 155/298/2 161/355/2 164/356/2
f 156/357/7 157/358/7 163/359/7 162/360/7
f 147/345/14 150/344/14 156/347/14 154/346/14
f 148/286/8 147/289/8 154/349/8 153/348/8
f 151/286/9 152/361/9 158/362/9 157/348/9
f 149/292/8 148/293/8 153/363/8 155/364/8
f 161/364/8 159/363/8 165/365/8 167/366/8
f 163/348/9 164/362/9 170/367/9 169/368/9
f 154/346/14 156/347/14 162/369/14 160/370/14
f 153/282/7 154/285/7 160/371/7 159/372/7
f 157/358/7 158/373/7 164/374/7 163/359/7
f 155/298/7 153/301/7 159/375/7 161/355/7
f 169/359/7 165/372/7 166/371/7 168/360/7
f 170/356/7 167/355/7 165/375/7 169/376/7
f 162/349/9 163/348/9 169/368/9 168/377/9
f 164/369/6 161/370/6 167/378/6 170/379/6
f 160/370/14 162/369/14 168/379/14 166/378/14
f 159/372/2 160/371/2 172/380/2 171/381/2
f 171/348/8 172/349/8 174/377/8 173/368/8
f 165/382/6 159/383/6 175/384/6 176/385/6
f 166/371/7 165/372/7 173/381/7 174/380/7
f 160/370/14 166/378/14 174/386/14 172/387/14
f 178/388/2 176/389/2 180/390/2 182/391/2
f 159/370/6 171/387/6 177/392/6 175/393/6
f 173/394/6 165/395/6 176/396/6 178/397/6
f 171/398/6 173/399/6 178/400/6 177/401/6
f 180/385/6 179/384/6 181/402/6 182/403/6
f 177/404/9 178/405/9 182/406/9 181/407/9
f 175/389/7 177/388/7 181/391/7 179/390/7
f 176/408/8 175/409/8 179/410/8 180/411/8
usemtl puerta_garaje
f 53/412/2 49/413/2 50/414/2 52/415/2
f 54/416/2 51/417/2 49/413/2 53/412/2
usemtl puerta
f 71/418/9 67/419/9 68/420/9 69/421/9 70/422/9 72/423/9
